<?xml version="1.0" standalone="no"?>
<!DOCTYPE svg PUBLIC "-//W3C//DTD SVG 20010904//EN"
 "http://www.w3.org/TR/2001/REC-SVG-20010904/DTD/svg10.dtd">
<svg version="1.0" xmlns="http://www.w3.org/2000/svg"
 width="900.000000pt" height="780.000000pt" viewBox="0 0 900.000000 780.000000"
 preserveAspectRatio="xMidYMid meet">

<g transform="translate(0.000000,780.000000) scale(0.100000,-0.100000)"
fill="#000000" stroke="none">
<path d="M3675 7236 c-127 -40 -246 -159 -334 -333 -95 -190 -188 -512 -241
-840 l-12 -73 -81 0 c-225 0 -327 -50 -397 -194 -43 -90 -55 -172 -35 -248 8
-34 20 -67 25 -73 12 -15 -29 -25 -99 -25 -288 0 -887 -247 -1236 -510 -325
-245 -528 -536 -597 -855 -19 -89 -16 -315 5 -395 24 -88 60 -163 109 -230
277 -374 1023 -631 2203 -760 155 -17 668 -60 713 -60 11 0 5 -11 -18 -32 -50
-50 -97 -128 -127 -215 -22 -63 -27 -96 -27 -173 -1 -84 3 -102 28 -157 29
-64 105 -147 162 -176 61 -31 166 -56 284 -67 67 -6 131 -10 143 -9 36 2 37 1
20 -43 -26 -69 -23 -229 6 -301 30 -76 102 -149 184 -188 213 -99 579 -87 938
31 l120 39 144 -107 c199 -148 377 -257 600 -367 280 -138 503 -209 697 -222
289 -18 441 114 384 336 -62 241 -294 593 -880 1331 -124 157 -226 287 -226
291 0 3 91 11 203 17 215 14 426 34 597 58 l104 14 41 -38 c157 -149 537 -351
776 -411 277 -70 426 38 325 236 -58 115 -209 293 -331 392 l-73 59 39 38
c112 109 127 274 42 444 l-38 76 70 44 c88 57 275 242 345 340 124 176 151
300 83 381 -36 42 -78 59 -171 65 -251 19 -755 -182 -963 -383 l-47 -45 -159
55 c-461 160 -1198 334 -1868 442 -103 17 -168 32 -182 43 -159 124 -368 277
-476 348 l-134 89 -6 375 c-17 1137 -171 1860 -420 1976 -59 27 -145 31 -212
10z m158 -100 c210 -87 351 -801 374 -1893 3 -167 4 -303 1 -303 -3 0 -45 23
-94 52 -117 67 -403 206 -529 256 -121 48 -284 102 -382 128 -87 22 -81 -6
-53 272 69 667 199 1135 378 1358 95 118 214 169 305 130z m-767 -1260 c3 -8
-1 -72 -10 -143 -8 -70 -18 -170 -22 -220 -4 -51 -9 -93 -12 -93 -3 0 -60 7
-126 16 -137 18 -182 39 -209 97 -19 40 -22 114 -7 169 15 52 69 129 107 151
54 31 269 49 279 23z m-167 -541 c206 -30 406 -85 624 -171 415 -164 865 -432
1281 -763 40 -31 86 -62 102 -69 16 -6 115 -25 219 -42 633 -104 1296 -260
1739 -408 l200 -67 0 -62 c1 -53 5 -66 32 -100 61 -76 225 -134 474 -168 122
-16 126 -18 157 -52 46 -50 75 -133 77 -217 1 -48 -3 -71 -12 -74 -6 -2 -10
-8 -7 -13 4 -5 0 -6 -8 -3 -7 2 -40 0 -73 -6 -76 -13 -118 -19 -174 -23 -202
-16 -250 -21 -242 -26 6 -3 -15 -6 -46 -6 -54 0 -270 -12 -392 -21 -30 -2
-102 -4 -159 -4 -57 0 -107 -3 -112 -5 -4 -3 -223 -6 -486 -8 l-478 -2 -103
32 c-134 42 -362 86 -587 114 -292 35 -579 21 -798 -40 -82 -23 -119 -26 -197
-14 -30 4 -72 8 -92 8 -21 0 -38 2 -38 6 0 6 -63 13 -127 13 -24 1 -43 4 -43
7 0 3 -51 12 -112 19 -62 7 -129 15 -148 17 -19 2 -50 5 -67 6 -18 1 -33 5
-33 10 0 4 -11 7 -24 7 -13 0 -84 11 -157 25 -74 14 -147 27 -164 30 -16 2
-70 14 -120 25 -49 11 -96 18 -102 15 -7 -2 -13 -1 -13 4 0 5 -17 11 -37 15
-21 3 -121 28 -223 55 -101 27 -189 47 -195 44 -5 -4 -6 -2 -2 2 4 5 -16 16
-45 25 -37 11 -55 13 -60 6 -5 -8 -8 -7 -8 1 0 10 -62 39 -100 47 -17 3 -32 9
-109 43 -29 12 -57 20 -62 17 -5 -3 -9 0 -9 6 0 7 -7 9 -16 6 -8 -3 -13 -2
-10 3 6 10 -52 34 -63 26 -4 -2 -8 10 -8 27 0 17 -7 36 -17 43 -9 7 -14 19
-11 27 4 9 -1 22 -9 31 -9 9 -16 23 -16 33 0 9 -11 37 -25 61 -22 36 -29 42
-44 34 -13 -7 -18 -6 -18 4 0 7 6 11 14 8 21 -8 15 23 -10 54 -13 15 -26 36
-30 46 -3 9 -11 17 -17 17 -6 0 -8 5 -4 12 5 7 2 9 -9 5 -11 -4 -14 -2 -10 9
6 15 -26 46 -39 38 -4 -3 -5 2 -2 11 8 19 -34 67 -50 58 -6 -3 -8 -3 -4 2 10
11 -11 37 -23 29 -5 -3 -8 0 -7 7 2 6 -3 14 -11 17 -9 3 -11 0 -6 -8 5 -8 4
-11 -3 -6 -6 4 -8 14 -5 24 6 15 5 16 -12 2 -12 -10 -16 -10 -11 -2 4 7 2 19
-4 27 -18 21 -35 19 -19 -2 13 -16 12 -17 -3 -4 -10 7 -15 17 -13 22 3 4 -12
17 -34 27 -28 14 -42 16 -45 8 -2 -6 -5 -3 -5 8 -1 11 -6 16 -15 13 -8 -3 -16
-1 -18 5 -2 5 -22 11 -45 12 -23 0 -39 5 -36 9 4 7 -46 6 -180 -3 -9 -1 -16
-4 -13 -8 2 -4 -12 -8 -32 -9 -19 -1 -38 -7 -42 -13 -5 -9 -10 -9 -14 -1 -10
15 42 113 111 208 59 83 195 233 210 233 4 0 19 -24 33 -53 34 -71 192 -229
300 -299 191 -124 465 -236 767 -312 120 -31 164 -33 186 -8 27 29 138 324
135 357 -3 28 -13 35 -153 105 -271 136 -427 240 -560 374 -77 78 -135 167
-135 208 0 21 75 58 279 139 236 93 356 117 600 118 109 1 213 -5 280 -14z
m-1238 -332 c58 -136 226 -296 459 -438 87 -53 318 -177 347 -186 9 -3 -1 -39
-33 -121 -41 -103 -49 -118 -70 -118 -12 0 -93 20 -178 45 -432 123 -740 299
-870 493 -63 96 -66 112 -21 150 59 53 320 221 343 222 1 0 12 -21 23 -47z
m-611 -703 c-8 -5 -24 -9 -35 -9 l-20 0 20 9 c11 5 27 9 35 9 13 1 13 0 0 -9z
m180 -45 c11 -13 10 -14 -4 -9 -9 3 -16 10 -16 15 0 13 6 11 20 -6z m70 -25
c6 -11 9 -20 8 -20 -2 0 -11 9 -21 20 -9 11 -13 20 -7 20 5 0 14 -9 20 -20z
m6455 -90 c-3 -5 -12 -10 -18 -10 -7 0 -6 4 3 10 19 12 23 12 15 0z m265 -305
c14 -19 14 -19 -2 -6 -10 7 -18 18 -18 24 0 6 1 8 3 6 1 -2 9 -13 17 -24z
m-40 -69 c0 -2 -8 -10 -17 -17 -16 -13 -17 -12 -4 4 13 16 21 21 21 13z m-40
-40 c0 -2 -8 -10 -17 -17 -16 -13 -17 -12 -4 4 13 16 21 21 21 13z m-633 -22
c-3 -3 -12 -4 -19 -1 -8 3 -5 6 6 6 11 1 17 -2 13 -5z m-6458 -117 c0 -9 -2
-8 -6 1 -2 6 -10 9 -15 6 -7 -4 -8 -2 -4 5 9 13 26 5 25 -12z m6728 7 c-3 -3
-12 -4 -19 -1 -8 3 -5 6 6 6 11 1 17 -2 13 -5z m-6712 -33 c3 -5 2 -12 -3 -15
-5 -3 -9 1 -9 9 0 17 3 19 12 6z m1052 -47 c-3 -3 -12 -4 -19 -1 -8 3 -5 6 6
6 11 1 17 -2 13 -5z m-1009 -29 c-3 -3 -9 2 -12 12 -6 14 -5 15 5 6 7 -7 10
-15 7 -18z m77 -66 c11 -16 1 -19 -13 -3 -7 8 -8 14 -3 14 5 0 13 -5 16 -11z
m1152 -5 c-3 -3 -12 -4 -19 -1 -8 3 -5 6 6 6 11 1 17 -2 13 -5z m250 -60 c-3
-3 -12 -4 -19 -1 -8 3 -5 6 6 6 11 1 17 -2 13 -5z m30 -20 c-3 -3 -12 -4 -19
-1 -8 3 -5 6 6 6 11 1 17 -2 13 -5z m318 -44 c-3 -5 -12 -10 -18 -10 -7 0 -6
4 3 10 19 12 23 12 15 0z m52 -24 c0 -8 -6 -12 -15 -9 -11 5 -11 7 0 14 7 5
13 9 14 9 0 0 1 -6 1 -14z m-47 -2 c0 -8 -19 -13 -24 -6 -3 5 1 9 9 9 8 0 15
-2 15 -3z m-1420 -54 c-12 -8 -12 -10 -1 -10 8 0 12 -3 8 -6 -9 -9 -28 6 -22
17 4 5 12 9 18 9 7 0 6 -4 -3 -10z m205 -80 c3 -6 -1 -7 -9 -4 -18 7 -21 14
-7 14 6 0 13 -4 16 -10z m3490 -74 c329 -48 544 -105 721 -191 l91 -44 244
-306 c823 -1033 1069 -1401 1069 -1603 0 -70 -19 -100 -83 -135 -37 -19 -57
-21 -157 -21 -201 1 -415 66 -724 221 -308 154 -566 334 -996 694 -433 362
-950 872 -1189 1173 -33 43 -61 81 -61 85 0 14 112 68 197 95 72 22 196 47
303 60 93 11 422 -4 585 -28z m2725 4 c0 -5 -2 -10 -4 -10 -3 0 -8 5 -11 10
-3 6 -1 10 4 10 6 0 11 -4 11 -10z m-93 -6 c-3 -3 -12 -4 -19 -1 -8 3 -5 6 6
6 11 1 17 -2 13 -5z m48 -4 c-3 -5 -12 -10 -18 -10 -7 0 -6 4 3 10 19 12 23
12 15 0z m-637 -59 c11 -7 10 -9 -3 -14 -9 -4 -14 -3 -10 2 3 5 -1 12 -7 14
-7 3 -8 6 -3 6 6 0 16 -3 23 -8z m-4961 -27 c-3 -3 -12 -4 -19 -1 -8 3 -5 6 6
6 11 1 17 -2 13 -5z m5495 -50 c77 -25 167 -90 279 -203 113 -113 197 -225
225 -298 l18 -46 -25 -20 c-21 -17 -34 -19 -104 -14 -112 7 -240 51 -441 151
-258 129 -429 253 -464 336 -17 41 -3 55 79 80 130 40 334 46 433 14z m-1644
-19 c-3 -3 -9 2 -12 12 -6 14 -5 15 5 6 7 -7 10 -15 7 -18z m-18 -10 c13 -14
21 -25 18 -25 -2 0 -15 11 -28 25 -13 14 -21 25 -18 25 2 0 15 -11 28 -25z
m-3353 -21 c-3 -3 -12 -4 -19 -1 -8 3 -5 6 6 6 11 1 17 -2 13 -5z m1274 -21
c13 -16 12 -17 -3 -4 -10 7 -18 15 -18 17 0 8 8 3 21 -13z m-994 -19 c-3 -3
-12 -4 -19 -1 -8 3 -5 6 6 6 11 1 17 -2 13 -5z m4080 0 c-3 -3 -12 -4 -19 -1
-8 3 -5 6 6 6 11 1 17 -2 13 -5z m-3710 -20 c-3 -3 -12 -4 -19 -1 -8 3 -5 6 6
6 11 1 17 -2 13 -5z m2960 -80 c-3 -3 -12 -4 -19 -1 -8 3 -5 6 6 6 11 1 17 -2
13 -5z m-2066 -186 c41 -46 150 -160 242 -255 l168 -171 -39 -7 c-76 -12 -154
-59 -215 -125 l-56 -63 -158 6 c-181 5 -257 24 -335 82 -113 84 -134 251 -52
419 66 136 158 191 320 195 l50 1 75 -82z m657 -652 c81 -74 212 -189 292
-256 80 -67 168 -141 195 -165 l50 -43 -89 -27 c-169 -52 -261 -67 -447 -72
-198 -6 -282 4 -369 43 -165 75 -212 246 -120 441 58 124 115 173 230 199 104
23 97 26 258 -120z"/>
<path d="M2813 5823 c-106 -58 -132 -226 -48 -310 83 -83 222 -4 241 139 18
134 -89 228 -193 171z"/>
<path d="M2866 4278 c-20 -18 -35 -55 -67 -167 -23 -81 -38 -153 -35 -166 7
-29 42 -43 256 -101 116 -31 180 -43 200 -39 32 7 38 19 100 211 44 135 41
147 -48 173 -93 27 -343 101 -364 107 -9 2 -28 -6 -42 -18z m211 -138 c76 -22
143 -42 149 -44 8 -3 1 -34 -19 -93 -17 -48 -31 -89 -33 -91 -3 -4 -274 68
-290 77 -13 7 33 191 47 191 5 0 70 -18 146 -40z"/>
<path d="M3456 4117 c-27 -20 -118 -304 -106 -328 16 -29 36 -36 223 -73 198
-40 219 -42 240 -21 9 8 36 78 62 156 54 162 53 181 -12 198 -74 20 -357 81
-373 81 -9 0 -24 -6 -34 -13z m205 -126 c72 -17 133 -32 136 -35 3 -2 -8 -41
-24 -85 -20 -59 -33 -81 -45 -81 -17 0 -260 50 -265 54 -2 2 32 111 52 164 6
15 -7 17 146 -17z"/>
<path d="M4021 3991 c-19 -19 -101 -262 -101 -298 1 -44 8 -46 233 -83 121
-20 186 -26 202 -20 24 9 38 40 90 201 30 91 29 131 -2 144 -19 7 -368 75
-390 75 -7 0 -22 -9 -32 -19z m214 -117 c55 -9 104 -21 109 -25 9 -8 -29 -144
-42 -153 -5 -3 -67 4 -139 16 l-131 20 24 72 c13 39 26 77 29 85 3 8 14 11 28
8 12 -3 67 -13 122 -23z"/>
<path d="M4582 3893 c-21 -19 -102 -242 -102 -280 0 -48 25 -58 214 -81 160
-20 181 -21 201 -8 30 19 110 254 101 292 -9 34 -28 40 -212 69 -192 30 -177
29 -202 8z m183 -109 c61 -9 112 -18 113 -20 2 -1 -6 -35 -19 -74 l-22 -72
-46 6 c-25 3 -74 8 -107 12 -90 9 -90 10 -63 93 13 39 25 71 28 71 4 0 56 -7
116 -16z"/>
<path d="M5113 3815 c-26 -18 -108 -264 -98 -294 8 -27 20 -30 178 -46 201
-21 242 -20 262 8 25 35 87 238 81 263 -8 30 -40 39 -235 64 -184 24 -162 23
-188 5z m192 -110 c60 -9 110 -17 112 -19 2 -1 -7 -31 -18 -65 l-21 -63 -42 6
c-22 3 -78 8 -124 12 -55 4 -82 10 -79 18 3 6 13 37 23 69 10 31 23 57 29 57
6 0 60 -7 120 -15z"/>
<path d="M5652 3743 c-27 -25 -96 -234 -88 -267 8 -34 41 -41 248 -56 186 -12
201 -10 223 43 21 53 48 194 41 220 -3 14 -14 28 -23 32 -14 5 -343 45 -373
45 -4 0 -17 -8 -28 -17z m203 -105 c61 -6 111 -12 113 -13 1 -1 -3 -26 -10
-55 l-12 -53 -130 7 c-72 4 -132 9 -134 11 -2 2 4 28 14 59 12 37 23 56 33 56
9 0 66 -5 126 -12z"/>
<path d="M3859 2520 c-107 -56 -170 -211 -139 -340 17 -72 87 -145 146 -155
92 -15 186 45 235 149 60 126 28 290 -67 343 -49 29 -125 30 -175 3z"/>
<path d="M4494 1926 c-114 -50 -189 -216 -154 -346 54 -205 275 -214 378 -15
30 60 42 180 22 240 -14 44 -62 100 -101 121 -35 17 -104 18 -145 0z"/>
</g>
</svg>
